<?xml version="1.0" encoding="iso-8859-1"?>
<!-- Uploaded to: SVG Repo, www.svgrepo.com, Generator: SVG Repo Mixer Tools -->
<!DOCTYPE svg PUBLIC "-//W3C//DTD SVG 1.1//EN" "http://www.w3.org/Graphics/SVG/1.1/DTD/svg11.dtd">
<svg fill="#000000" version="1.1" id="Capa_1" xmlns="http://www.w3.org/2000/svg" xmlns:xlink="http://www.w3.org/1999/xlink" 
	 width="800px" height="800px" viewBox="0 0 501.471 501.472"
	 xml:space="preserve">
<g>
	<g>
		<path d="M473.669,446.783l-0.722-0.938c-6.544-8.502-12.843-17.109-17.813-26.654c-1.491-2.863-2.896-5.725-4.219-8.67
			c-1.272-2.842-2.346-5.729-3.461-8.636c-0.572-1.496-1.037-3.012-1.502-4.543c-0.506-1.668-1.134-3.342-1.474-5.054
			c-0.508-2.138-1.141-4.29-1.491-6.463c-1.107-6.848-2.048-13.614-2.044-20.572c0.004-6.854,0.776-13.579,1.881-20.331
			c1.381-6.47,3.025-12.818,5.329-19.028c1.112-2.999,2.336-5.975,3.708-8.867c4.756-10.032,18.749-27.584,16.64-45.014
			c-0.755-6.71-2.903-13.245-4.31-19.841c-1.232-5.792-2.282-11.626-3.096-17.493c-1.24-8.951-1.492-18.004-1.767-27.043
			c-0.377-12.492,7.432-31.646,8.6-34.87c1.655-4.573,2.747-9.355,3.096-14.206c0.691-9.595-1.355-19.33-5.865-27.827
			c-4.889-9.211-12.612-16.792-21.885-21.561c-10.34-5.319-18.624-7.082-35.433-4.216c-4.794,0.817-9.622,1.823-14.392,2.752
			l-136.502,26.618c-1.195,0.234-2.395,0.467-3.589,0.7c-6.238,1.239-11.019,6.214-12.13,12.311
			c-1.562-2.398-4.353-3.893-7.407-3.656l-55.596,4.297c-5.868-8.707-16.488-13.301-26.848-11.623
			c-4.905,0.794-9.548,2.953-13.313,6.196c-1.709,1.472-3.208,3.141-4.99,4.537c-1.859,1.457-3.838,2.76-5.862,3.974
			c-5.306,3.181-10.955,5.8-16.693,8.098c-2.345,0.939-4.715,1.825-7.113,2.621c-2.963,0.983-5.868,1.87-8.564,3.5
			c-1.928,0.906-3.66,2.247-5.074,3.96c-1.049,1.044-2.011,2.176-2.876,3.377c-0.931,1.292-1.604,2.635-2.747,3.748
			c-2.013,2.148-4.858,3.804-7.428,5.184c-4.916,2.639-10.139,4.29-15.576,5.454c-3.222,0.689-6.472,1.023-9.74,1.419
			c-3.196,0.285-6.622,0.451-9.825,0.276c-3.202-0.174-6.438-0.155-9.627-0.52c-2.837-0.325-5.671-0.684-8.506-1.022
			c-0.631-0.074-1.262-0.149-1.893-0.226c-5.045-0.604-9.839,2.877-10.854,7.85c-1.055,5.166,2.289,10.385,7.418,11.595
			c4.703,1.114,9.451,2.535,14.246,3.171c2.988,0.473,5.994,1.096,9.003,1.401c3.218,0.258,6.44,0.58,9.663,0.747
			c5.415,0.28,10.85-0.113,16.234-0.638c5.612-0.547,11.036-1.99,16.433-3.563c-8.909,6.939-18.593,12.722-28.837,17.462
			c-4.876,2.257-9.88,4.419-14.986,6.113c-3.439,1.141-6.904,2.209-10.354,3.314c-4.993,1.626-7.874,7.08-6.436,12.122
			c1.413,4.959,6.602,8.048,11.635,6.941c4.83-1.064,9.718-1.98,14.472-3.347c3.192-0.918,6.443-1.724,9.589-2.795
			c3.229-1.099,6.431-2.284,9.646-3.423c3.109-1.314,6.219-2.627,9.328-3.94c3.162-1.51,6.298-3.07,9.425-4.65
			c5.83-3.298,11.677-6.598,17.101-10.549c2.728-1.987,5.408-4.003,8.05-6.105c1.189-0.947,2.343-1.929,3.487-2.93
			c0.764-0.666,1.413-1.434,2.387-1.738c2.39-0.75,4.759-1.564,7.111-2.421c8.041-2.934,15.91-6.386,23.455-10.433
			c6.494-3.484,12.77-7.423,18.539-12.019c6.235-4.967,12.188-10.55,14.467-18.441l54.279-10.971
			c2.617-0.527,4.736-2.304,5.781-4.639c2.255,6.54,8.744,10.94,15.932,10.247L364.2,155.009
			c-6.965,22.884-8.513,47.219-7.051,70.996c1.082,17.584,3.847,35.045,7.73,52.219c-10.573,24.974-18.311,51.271-22.591,78.062
			c-2.182,13.654-3.452,27.459-3.778,41.283c-0.32,13.666,0.566,27.295,2.215,40.854c1.203,9.895,3.044,19.829,5.578,29.472
			c1.815,6.909,3.871,13.707,6.021,20.517c3.025,9.485,13.34,15.075,22.932,12.385c9.49-2.661,15.384-12.608,13.181-22.212
			c-0.776-3.408-1.531-6.823-2.349-10.222c-1.495-6.208-2.221-12.642-3.063-18.958c-0.901-6.74-1.168-13.559-1.443-20.347
			c-0.221-6.823-0.074-13.74,0.43-20.548c1.472-19.923,5.166-39.523,11.021-58.625c-0.123,13.811,1.216,27.735,4.827,41.101
			c3.378,12.503,7.924,24.86,14.313,36.164c5.262,9.311,11.028,18.228,17.686,26.615c4.794,6.04,10.055,11.638,15.324,17.255
			c6.912,7.316,18.787,7.813,26.25,1.049C478.561,465.602,479.541,454.405,473.669,446.783z"/>
		<path d="M453.893,100.856c18.835-5.493,33.196-21.696,36.403-41.052c3.249-19.613-5.477-39.878-21.931-51.016
			c-16.424-11.116-38.317-11.743-55.349-1.562c-16.698,9.982-26.533,29.192-24.857,48.575c1.706,19.741,14.958,37.099,33.542,43.951
			C431.995,103.546,443.365,103.925,453.893,100.856L453.893,100.856z"/>
		<path d="M189.719,142.15c9.572-2.346,17.271-9.9,19.816-19.42c2.579-9.652-0.499-20.237-7.847-27.002
			c-7.295-6.714-17.893-8.939-27.273-5.735c-9.272,3.167-16.258,11.349-17.971,20.992c-1.605,9.039,1.596,18.527,8.35,24.743
			C171.453,141.858,180.927,144.306,189.719,142.15L189.719,142.15z"/>
	</g>
</g>
</svg>