<?xml version="1.0" encoding="utf-8"?><svg version="1.1" id="Layer_1" xmlns="http://www.w3.org/2000/svg" xmlns:xlink="http://www.w3.org/1999/xlink" x="0px" y="0px" viewBox="0 0 38.47 122.88" style="enable-background:new 0 0 38.47 122.88" xml:space="preserve"><g><path d="M36.82,35.73L36.82,35.73L36.82,35.73z M12.86,21.38c1.03,0,1.86,0.83,1.86,1.86c0,1.03-0.83,1.86-1.86,1.86 c-1.03,0-1.86-0.83-1.86-1.86C11,22.21,11.84,21.38,12.86,21.38L12.86,21.38z M15.13,33.22c-0.4-0.28-0.5-0.82-0.22-1.22 c0.28-0.4,0.82-0.5,1.22-0.22c0.89,0.62,1.77,0.93,2.62,0.93c0.86,0,1.73-0.31,2.63-0.93c0.4-0.27,0.94-0.17,1.22,0.22 c0.27,0.4,0.17,0.94-0.22,1.22c-1.19,0.82-2.4,1.23-3.62,1.24C17.53,34.45,16.32,34.04,15.13,33.22L15.13,33.22z M25.06,21.38 c1.03,0,1.86,0.83,1.86,1.86c0,1.03-0.83,1.86-1.86,1.86s-1.86-0.83-1.86-1.86C23.2,22.21,24.03,21.38,25.06,21.38L25.06,21.38z M10.48,114.94c0.78,0.3,1.54,0.52,2.26,0.65c0.71,0.12,1.38,0.14,2.03,0.05l0.07-0.79l0-0.02l1.51-18.27l-0.46-0.02 c-1.48-0.06-2.94-0.12-4.45-0.19l-0.33-0.02l-0.18-0.01L10.48,114.94L10.48,114.94z M14.63,117.18c-0.69,0.06-1.4,0.02-2.14-0.1 c-0.89-0.15-1.8-0.42-2.74-0.8c-1,0.35-1.68,0.67-2.44,1.01c-0.25,0.11-0.5,0.23-0.73,0.33l-0.45,0.2 c-1.23,0.54-2.33,1.02-1.92,2.34c0.07,0.24,0.2,0.43,0.38,0.58c0.2,0.16,0.47,0.29,0.81,0.38h7.92c0.31-0.09,0.55-0.24,0.71-0.44 l0,0l0,0c0.19-0.22,0.31-0.54,0.36-0.94L14.63,117.18L14.63,117.18z M28.73,116.33c-0.89,0.35-1.76,0.6-2.6,0.75 c-0.8,0.13-1.58,0.17-2.32,0.08l0.23,2.59c0.05,0.4,0.17,0.71,0.36,0.94c0.17,0.2,0.4,0.35,0.71,0.44h8.13 c0.35-0.09,0.62-0.22,0.81-0.38c0.18-0.15,0.31-0.35,0.38-0.58c0.44-1.4-0.76-1.93-2.07-2.52l-0.21-0.1 c-0.02-0.01-0.03-0.01-0.05-0.02c-0.56-0.25-1.11-0.49-1.69-0.71C29.89,116.63,29.33,116.46,28.73,116.33L28.73,116.33z M23.67,115.61c0.7,0.12,1.44,0.11,2.21-0.02c0.65-0.11,1.33-0.3,2.03-0.56l-0.24-18.54c-0.85,0.06-1.75,0.11-2.64,0.14 c-0.94,0.03-1.88,0.05-2.79,0.05l1.35,18.14l0,0.03L23.67,115.61L23.67,115.61z M29.42,96.32l0.24,18.42 c0.48,0.12,0.93,0.27,1.36,0.43c0.63,0.23,1.21,0.49,1.8,0.75l0.04,0.02l0.21,0.09c2.06,0.92,3.93,1.76,3.03,4.64 c-0.17,0.56-0.49,1.03-0.95,1.41c-0.43,0.35-0.97,0.61-1.64,0.76c-0.06,0.01-0.13,0.02-0.19,0.02v0h-8.34 c-0.09,0-0.18-0.01-0.27-0.04c-0.71-0.19-1.26-0.53-1.67-1.03c-0.42-0.5-0.67-1.12-0.76-1.87l0-0.03h0L21.85,115 c0-0.02,0-0.03,0-0.05l-1.36-18.29c-0.3,0-0.59-0.01-0.89-0.01c-0.5-0.01-1-0.02-1.5-0.03l-1.52,18.36l0,0.03l-0.43,4.91h0l0,0.03 c-0.09,0.75-0.34,1.37-0.76,1.87l0,0c-0.41,0.5-0.97,0.84-1.67,1.03c-0.08,0.03-0.18,0.04-0.27,0.04H5.31v0 c-0.06,0-0.13-0.01-0.19-0.02c-0.67-0.15-1.22-0.41-1.64-0.76c-0.46-0.38-0.77-0.85-0.95-1.41c-0.88-2.81,0.9-3.59,2.9-4.47 c0.09-0.04,0.18-0.08,0.43-0.19c0.28-0.13,0.5-0.23,0.71-0.33c0.69-0.32,1.32-0.61,2.16-0.92l0.44-18.53 c-0.59-0.03-1.18-0.05-1.78-0.08l-0.07,0c-0.91-0.04-1.87-0.08-2.73-0.23c-1.85-0.34-3.18-1.15-2.8-3.25 c0.01-0.03,0.01-0.06,0.02-0.1l0,0c1.09-3.65,1.94-7.53,2.58-11.58c0.04-0.23,0.07-0.45,0.11-0.68c-1.17-0.23-2.11-0.81-2.78-1.82 c-0.76-1.16-1.1-2.86-0.92-5.24h0c0-0.35-0.13-0.76-0.26-1.17c-0.08-0.24-0.16-0.49-0.22-0.79c-0.01-0.03-0.01-0.05-0.02-0.08 c-0.16-0.97-0.25-1.94-0.29-2.91c-0.04-0.98-0.02-1.94,0.06-2.9h0c0.01-0.11,0.04-0.22,0.08-0.31c-0.1-1.35-0.11-2.61-0.03-3.87 c0.09-1.4,0.29-2.77,0.61-4.23c1.57-7.25,3.49-8.84,8-12.57c0.61-0.5,1.26-1.04,1.89-1.57c0.01-0.01,0.03-0.02,0.04-0.03 c0.14-0.18,0.24-0.3,0.33-0.42c0.47-0.59,0.85-1.08,1.16-1.73c-1.97-1.05-3.8-2.63-5.36-4.76c-1.17,0.29-2.17,0.55-3,0.77 c-0.96,0.25-1.71,0.45-2.2,0.56c-0.07,0.02-0.14,0.02-0.21,0.02c-0.48-0.01-0.87-0.41-0.85-0.9l0.5-21.15c0-0.03,0-0.06,0-0.1 c0.13-1.25,0.41-2.46,0.83-3.63c0.43-1.17,0.99-2.29,1.67-3.36c1.86-2.92,4.17-5,6.89-6.33c2.7-1.32,5.8-1.89,9.24-1.8 c2.95,0.07,5.82,0.81,8.36,2.27c2.38,1.36,4.48,3.36,6.12,6.04c0.61,0.99,1.13,2.03,1.57,3.12c0.43,1.07,0.79,2.18,1.06,3.34 c0.02,0.08,0.04,0.16,0.04,0.25l0,20.71c0,0.28-0.13,0.55-0.37,0.72c-0.4,0.28-0.94,0.18-1.22-0.21c-0.4-0.56-0.91-1.04-1.52-1.43 c-0.46-0.3-0.98-0.55-1.54-0.77c-1.82,2.95-4.19,5.16-6.82,6.55c0.24,0.68,0.57,1.2,0.97,1.85l0.18,0.28 c1.38,0.63,2.73,1.43,4.01,2.6c1.32,1.22,2.55,2.83,3.64,5.06c1.41,2.9,2.13,5.91,2.86,8.97l0.34,1.41l1.11,4.55 c0.07,0.29-0.01,0.57-0.19,0.78c0.04,0.78,0.05,1.56,0.02,2.35c-0.04,0.98-0.13,1.95-0.29,2.91c0,0.03-0.01,0.05-0.02,0.08 c-0.07,0.3-0.15,0.54-0.22,0.79c-0.13,0.41-0.26,0.82-0.26,1.17h0c0.18,2.38-0.16,4.08-0.92,5.24c-0.65,0.98-1.56,1.56-2.68,1.8 l0.01,0.05c0.61,4.02,1.33,7.98,2.2,11.83l0,0c0.19,0.76,0.19,1.46-0.08,2.05c-0.28,0.64-0.82,1.1-1.67,1.36 c-0.05,0.01-0.1,0.02-0.14,0.03C32.55,95.99,30.96,96.18,29.42,96.32L29.42,96.32z M23.16,38.71c0.2-0.09,0.4-0.18,0.61-0.28 c0.03-0.01,0.05-0.02,0.08-0.03c2.98-1.49,5.62-4.24,7.28-8.03c0.58-1.33,0.85-2.54,0.96-3.75c0.35-3.72,0.03-8.74,0.03-12.59 c-3.05,0.47-4.32-1.57-4.88-4.61C21,15.1,13.74,16.35,5.61,13.84c0,3.82-0.3,8.61,0,12.3c0.09,1.11,0.31,2.24,0.79,3.49 C9.91,38.86,17.13,41.3,23.16,38.71L23.16,38.71z M26.24,44.53c-0.67,0.84-1.45,1.53-2.3,2.09c-1.63,1.07-3.53,1.62-5.43,1.63 c-1.9,0-3.8-0.54-5.42-1.67c-0.31-0.22-0.61-0.45-0.9-0.71c-0.39-0.33-0.76-0.69-1.11-1.08c-0.44,0.37-0.84,0.7-1.22,1.01 c-4.18,3.46-5.96,4.93-7.41,11.58c-0.3,1.38-0.49,2.67-0.58,3.97c-0.07,1.05-0.07,2.11,0.01,3.25l4.68-0.04 c0.11-0.6,0.23-1.2,0.36-1.8c0.16-0.81,0.34-1.61,0.55-2.39c0.32-1.23,0.71-2.44,1.17-3.68c0.14-0.38,0.29-0.75,0.44-1.12 c0.19-0.45,0.7-0.66,1.15-0.47c0.45,0.19,0.66,0.7,0.47,1.15c-0.76,1.83-1.36,3.82-1.84,5.89c-0.08,0.35-0.16,0.7-0.24,1.06 c-0.13,0.68-0.25,1.38-0.36,2.11c0.02,0.11,0.01,0.22-0.01,0.33c-0.14,0.6-0.26,1.19-0.38,1.79l-0.05,0.33 c3.53,0.83,7.49,1.21,11.38,1.19c3.34-0.05,6.77-0.42,10.25-1.07c0.33-0.07,0.65-0.15,0.97-0.23c-0.14-0.59-0.27-1.17-0.39-1.75 c-0.04-0.09-0.07-0.18-0.08-0.28c-0.02-0.12-0.04-0.25-0.06-0.37l-0.01-0.07c-0.56-2.58-1.11-5.14-2.1-7.57 c-0.17-0.4-0.34-0.78-0.51-1.16c-0.21-0.44-0.02-0.96,0.42-1.17c0.44-0.21,0.96-0.02,1.17,0.42l0.01,0.03 c0.2,0.41,0.38,0.82,0.54,1.23c0.43,1.04,0.82,2.14,1.17,3.31c0.4,1.37,0.74,2.83,1,4.37h4.92l-0.85-3.47 c-0.23-0.95-0.29-1.18-0.34-1.42c-0.71-2.96-1.4-5.88-2.73-8.6c-0.98-2.02-2.08-3.46-3.25-4.54C28.34,45.7,27.31,45.05,26.24,44.53 L26.24,44.53z M13.76,41.42c-0.37,0.8-0.83,1.38-1.38,2.08c0.32,0.41,0.67,0.78,1.04,1.11c0.07,0.05,0.13,0.11,0.2,0.16 c1.44,1.11,3.13,1.69,4.81,1.71c1.68,0.03,3.38-0.5,4.83-1.58c0.57-0.43,1.1-0.94,1.58-1.53l0-0.01c-0.45-0.71-0.82-1.29-1.1-2.04 C20.5,42.58,17,42.66,13.76,41.42L13.76,41.42z M32.06,80.02c-0.04-0.09-0.06-0.19-0.07-0.29h0l-0.02-0.36 c-0.48-3.28-0.89-6.6-1.26-9.96c-0.33,0.06-0.65,0.13-0.97,0.19c-3.18,0.69-6.81,1.07-10.49,1.09h-0.02c-0.15,0-0.31,0-0.46,0 c-3.85,0.02-7.61-0.36-11.27-1.23l-0.04,0.22c-0.3,3.98-0.72,7.86-1.32,11.59c-0.66,4.12-1.51,8.06-2.62,11.76 c-0.09,0.7,0.54,1.01,1.4,1.17c0.73,0.13,1.63,0.17,2.49,0.2l0.07,0c1.31,0.05,2.55,0.11,3.76,0.17l6.04,0.22c0.03,0,0.07,0,0.11,0 c0.07,0.01,0.14,0.02,0.2,0.04c0.69,0.02,1.38,0.04,2.06,0.05c1.22,0.02,2.43,0.02,3.65,0c1.67-0.03,3.38-0.11,5.18-0.25 c1.74-0.14,3.55-0.35,5.44-0.63c0.29-0.1,0.46-0.22,0.53-0.38c0.09-0.21,0.08-0.52-0.02-0.91l0,0l0-0.02 c-0.89-3.94-1.62-7.94-2.24-11.97L32.06,80.02L32.06,80.02z M5.7,69.51c0.03-0.4,0.06-0.8,0.08-1.2c0.01-0.21,0.1-0.39,0.23-0.53 c0.04-0.22,0.08-0.44,0.13-0.66c0.04-0.24,0.08-0.49,0.11-0.73H1.77c-0.03,0.63-0.03,1.25-0.01,1.87c0.03,0.89,0.12,1.78,0.27,2.67 c0.04,0.18,0.12,0.41,0.19,0.64c0.18,0.56,0.36,1.12,0.33,1.8l0,0.03l0,0c-0.15,1.97,0.08,3.32,0.63,4.15 c0.34,0.52,0.83,0.84,1.44,1.01c0.16-2.05,0.36-4.11,0.64-6.18C5.4,71.42,5.54,70.47,5.7,69.51L5.7,69.51z M32.29,67.9l0.04,0.17 c0.02,0.06,0.02,0.12,0.03,0.18c0.26,1.41,0.49,2.83,0.68,4.25c0.28,2.07,0.48,4.13,0.64,6.18c0.61-0.17,1.1-0.49,1.44-1.01 c0.55-0.83,0.78-2.18,0.63-4.15l0,0l0-0.03c-0.03-0.67,0.15-1.24,0.33-1.8c0.07-0.23,0.15-0.46,0.19-0.64 c0.15-0.89,0.23-1.79,0.27-2.67c0.02-0.63,0.02-1.27-0.01-1.91l-4.53-0.04C32.09,66.91,32.19,67.41,32.29,67.9L32.29,67.9z M1.6,37.25L1.6,37.25L1.6,37.25z"/></g></svg>