<?xml version="1.0" encoding="iso-8859-1"?>
<!-- Uploaded to: SVG Repo, www.svgrepo.com, Generator: SVG Repo Mixer Tools -->
<!DOCTYPE svg PUBLIC "-//W3C//DTD SVG 1.1//EN" "http://www.w3.org/Graphics/SVG/1.1/DTD/svg11.dtd">
<svg fill="#000000" height="800px" width="800px" version="1.1" id="Capa_1" xmlns="http://www.w3.org/2000/svg" xmlns:xlink="http://www.w3.org/1999/xlink" 
	 viewBox="0 0 465 465" xml:space="preserve">
<g>
	<path d="M192.367,325.938h-12.281c-4.143,0-7.5,3.357-7.5,7.5s3.357,7.5,7.5,7.5h12.281c4.143,0,7.5-3.357,7.5-7.5
		S196.51,325.938,192.367,325.938z"/>
	<path d="M284.914,325.938h-12.281c-4.143,0-7.5,3.357-7.5,7.5s3.357,7.5,7.5,7.5h12.281c4.143,0,7.5-3.357,7.5-7.5
		S289.057,325.938,284.914,325.938z"/>
	<path d="M192.367,360.268h-12.281c-4.143,0-7.5,3.357-7.5,7.5s3.357,7.5,7.5,7.5h12.281c4.143,0,7.5-3.357,7.5-7.5
		S196.51,360.268,192.367,360.268z"/>
	<path d="M284.914,360.268h-12.281c-4.143,0-7.5,3.357-7.5,7.5s3.357,7.5,7.5,7.5h12.281c4.143,0,7.5-3.357,7.5-7.5
		S289.057,360.268,284.914,360.268z"/>
	<path d="M192.367,394.597h-12.281c-4.143,0-7.5,3.357-7.5,7.5s3.357,7.5,7.5,7.5h12.281c4.143,0,7.5-3.357,7.5-7.5
		S196.51,394.597,192.367,394.597z"/>
	<path d="M238.641,329.912h-12.281c-4.143,0-7.5,3.357-7.5,7.5s3.357,7.5,7.5,7.5h12.281c4.143,0,7.5-3.357,7.5-7.5
		S242.783,329.912,238.641,329.912z"/>
	<path d="M238.641,364.241h-12.281c-4.143,0-7.5,3.357-7.5,7.5s3.357,7.5,7.5,7.5h12.281c4.143,0,7.5-3.357,7.5-7.5
		S242.783,364.241,238.641,364.241z"/>
	<path d="M238.641,398.57h-12.281c-4.143,0-7.5,3.357-7.5,7.5s3.357,7.5,7.5,7.5h12.281c4.143,0,7.5-3.357,7.5-7.5
		S242.783,398.57,238.641,398.57z"/>
	<path d="M284.914,394.597h-12.281c-4.143,0-7.5,3.357-7.5,7.5s3.357,7.5,7.5,7.5h12.281c4.143,0,7.5-3.357,7.5-7.5
		S289.057,394.597,284.914,394.597z"/>
	<path d="M338.155,51.144c-8.419-22.551-18.905-32.124-26.22-36.186C286.935,1.079,244.814,0,232.5,0s-54.435,1.079-79.436,14.958
		c-7.314,4.062-17.801,13.636-26.219,36.186c-9.079,24.314-13.682,58.223-13.682,100.781c0,27.554,1.529,48.88,3.467,75.88
		c3.001,41.849,7.112,99.161,7.112,214.885c0,12.302,10.008,22.311,22.31,22.311h172.895c12.302,0,22.31-10.009,22.31-22.311
		c0-115.724,4.111-173.036,7.112-214.885c1.938-27,3.467-48.326,3.467-75.88C351.836,109.366,347.233,75.458,338.155,51.144z
		 M333.408,226.731c-3.019,42.074-7.151,99.697-7.151,215.958c0,4.031-3.279,7.311-7.31,7.311H146.053
		c-4.03,0-7.31-3.279-7.31-7.311c0-116.261-4.133-173.884-7.151-215.958c-1.915-26.7-3.428-47.79-3.428-74.807
		c0-40.762,4.284-72.904,12.733-95.535c7.447-19.947,16.082-26.448,19.448-28.316C177.707,18.435,209.002,15,232.5,15
		s54.793,3.435,72.154,13.073c3.367,1.868,12.001,8.369,19.448,28.316c8.449,22.631,12.733,54.773,12.733,95.535
		C336.836,178.941,335.323,200.031,333.408,226.731z"/>
	<path d="M299.602,117.752H165.398c-6.874,0-12.467,5.593-12.467,12.467v99.438c0,6.874,5.593,12.467,12.467,12.467h9.935
		c4.143,0,7.5-3.357,7.5-7.5s-3.357-7.5-7.5-7.5h-7.401v-94.372h129.137v94.372h-91.935c-4.143,0-7.5,3.357-7.5,7.5
		s3.357,7.5,7.5,7.5h94.468c6.874,0,12.467-5.593,12.467-12.467v-99.438C312.068,123.345,306.476,117.752,299.602,117.752z"/>
	<path d="M232.5,311.137c21.941,0,42.6-18.202,42.6-32.311c0-19.069-19.293-20.621-42.6-20.621s-42.6,1.552-42.6,20.621
		C189.9,292.935,210.559,311.137,232.5,311.137z M206.55,275.853c3.988-1.757,12.719-2.647,25.95-2.647s21.962,0.891,25.95,2.647
		c1.557,0.687,1.649,0.728,1.649,2.972c-0.071,4.057-11.938,17.313-27.6,17.313s-27.528-13.256-27.6-17.311
		C204.9,276.58,204.993,276.539,206.55,275.853z"/>
	<path d="M201.767,85.243c9.744,3.874,20.372,5.922,30.733,5.922s20.989-2.048,30.733-5.922c3.849-1.531,5.729-5.892,4.198-9.741
		c-1.531-3.848-5.89-5.728-9.741-4.198c-7.997,3.181-16.708,4.861-25.19,4.861s-17.193-1.681-25.19-4.861
		c-3.847-1.527-8.211,0.349-9.741,4.198S197.918,83.712,201.767,85.243z"/>
	<path d="M201.767,56.056c9.746,3.875,20.373,5.923,30.733,5.923s20.987-2.048,30.733-5.923c3.849-1.531,5.729-5.892,4.198-9.741
		c-1.531-3.848-5.89-5.729-9.741-4.198c-7.999,3.181-16.71,4.862-25.19,4.862s-17.191-1.682-25.19-4.862
		c-3.847-1.527-8.211,0.349-9.741,4.198S197.918,54.524,201.767,56.056z"/>
</g>
</svg>