<?xml version="1.0" encoding="iso-8859-1"?>
<!-- Uploaded to: SVG Repo, www.svgrepo.com, Generator: SVG Repo Mixer Tools -->
<!DOCTYPE svg PUBLIC "-//W3C//DTD SVG 1.1//EN" "http://www.w3.org/Graphics/SVG/1.1/DTD/svg11.dtd">
<svg fill="#000000" height="800px" width="800px" version="1.1" id="Capa_1" xmlns="http://www.w3.org/2000/svg" xmlns:xlink="http://www.w3.org/1999/xlink" 
	 viewBox="0 0 194.144 194.144" xml:space="preserve">
<path d="M40.913,194.144c-7.735,0-15.074-3.42-20.156-9.398c-5.281-6.213-7.534-14.382-6.181-22.412l10.083-59.823
	c0.52-3.084-0.77-6.171-3.286-7.863C8.248,85.813,0.094,68.854,0.094,50.392C0.094,22.605,18.402,0,40.906,0
	c22.504,0,40.813,22.605,40.813,50.392c0,18.463-8.154,35.421-21.279,44.255h0c-2.516,1.692-3.806,4.779-3.286,7.863l10.177,60.384
	c1.309,7.766-0.848,15.676-5.917,21.702c-5.07,6.027-12.493,9.507-20.365,9.548C41.004,194.144,40.958,194.144,40.913,194.144z
	 M40.906,5C21.159,5,5.094,25.362,5.094,50.392c0,16.821,7.308,32.189,19.071,40.106c4.141,2.786,6.27,7.827,5.425,12.842
	l-10.083,59.823c-1.107,6.572,0.736,13.258,5.06,18.344c4.153,4.886,10.111,7.66,16.456,7.637c6.403-0.033,12.44-2.863,16.564-7.767
	c4.123-4.901,5.877-11.336,4.813-17.653L52.223,103.34c-0.845-5.015,1.284-10.056,5.425-12.842h0
	c11.764-7.917,19.071-23.285,19.071-40.106C76.719,25.362,60.654,5,40.906,5z M152.5,194.144c-7.902,0-15.36-3.461-20.462-9.494
	c-5.103-6.034-7.275-13.964-5.962-21.756l10.479-62.171c-14.276-0.936-25.604-12.849-25.604-27.357V10.746
	C110.951,4.82,115.771,0,121.696,0c5.925,0,10.745,4.82,10.745,10.746V56.26c0,1.021,0.417,1.961,1.172,2.648
	c0.755,0.687,1.738,1.004,2.766,0.913c1.805-0.173,3.219-1.852,3.219-3.823V12.902C139.599,5.788,145.386,0,152.5,0
	c7.114,0,12.902,5.788,12.902,12.902V56.26c0,1.021,0.417,1.961,1.172,2.648c0.755,0.688,1.737,1.003,2.766,0.913
	c1.805-0.173,3.219-1.852,3.219-3.823V10.746C172.559,4.82,177.379,0,183.304,0s10.746,4.82,10.746,10.746v62.619
	c0,14.509-11.327,26.422-25.604,27.357l10.479,62.171c1.313,7.792-0.86,15.722-5.962,21.756
	C167.86,190.683,160.402,194.144,152.5,194.144z M121.696,5c-3.168,0-5.746,2.578-5.746,5.746v62.619
	c0,12.36,10.056,22.417,22.417,22.417c1.02,0,1.982,0.447,2.641,1.226c0.658,0.779,0.938,1.803,0.769,2.808l-10.771,63.908
	c-1.068,6.339,0.699,12.789,4.85,17.697c4.15,4.908,10.217,7.723,16.644,7.723c6.428,0,12.495-2.814,16.645-7.723
	c4.15-4.908,5.918-11.358,4.85-17.697l-10.771-63.909c-0.169-1.004,0.111-2.027,0.769-2.807c0.659-0.778,1.621-1.226,2.641-1.226
	c12.361,0,22.417-10.057,22.417-22.417V10.746c0-3.168-2.578-5.746-5.746-5.746s-5.746,2.578-5.746,5.746v45.252
	c0,4.521-3.401,8.386-7.744,8.8c-2.416,0.233-4.821-0.567-6.604-2.189c-1.785-1.623-2.809-3.938-2.809-6.349V12.902
	c0-4.357-3.544-7.902-7.901-7.902s-7.902,3.545-7.902,7.902v43.096c0,4.521-3.401,8.386-7.744,8.8
	c-2.415,0.233-4.821-0.567-6.604-2.189c-1.785-1.623-2.809-3.938-2.809-6.349V10.746C127.441,7.578,124.864,5,121.696,5z
	 M152.477,179.492c-1.381,0-2.5-1.119-2.5-2.5v-4.868l-3.495,3.495c-0.977,0.977-2.559,0.977-3.536,0
	c-0.977-0.976-0.977-2.559,0-3.535l3.635-3.636h-5.281c-1.381,0-2.5-1.119-2.5-2.5s1.119-2.5,2.5-2.5h5.094l-3.542-3.542
	c-0.977-0.976-0.977-2.559,0-3.535c0.977-0.977,2.559-0.977,3.536,0l3.589,3.588v-5.055c0-1.381,1.119-2.5,2.5-2.5
	s2.5,1.119,2.5,2.5v5.148l3.588-3.588c0.976-0.977,2.56-0.977,3.535,0c0.977,0.977,0.977,2.559,0,3.535l-3.448,3.448h4.737
	c1.381,0,2.5,1.119,2.5,2.5s-1.119,2.5-2.5,2.5h-4.924l3.542,3.542c0.977,0.977,0.977,2.559,0,3.535
	c-0.976,0.977-2.56,0.977-3.535,0l-3.495-3.495v4.962C154.977,178.373,153.858,179.492,152.477,179.492z M41.038,179.492
	c-1.381,0-2.5-1.119-2.5-2.5v-4.868l-3.495,3.495c-0.977,0.977-2.559,0.977-3.536,0c-0.977-0.976-0.977-2.559,0-3.535l3.635-3.636
	h-5.281c-1.381,0-2.5-1.119-2.5-2.5s1.119-2.5,2.5-2.5h5.094l-3.542-3.542c-0.977-0.977-0.977-2.559,0-3.535
	c0.976-0.977,2.56-0.977,3.535,0l3.588,3.588v-5.055c0-1.381,1.119-2.5,2.5-2.5s2.5,1.119,2.5,2.5v5.148l3.589-3.588
	c0.976-0.977,2.559-0.977,3.536,0c0.976,0.977,0.976,2.56,0,3.535l-3.448,3.448h4.737c1.381,0,2.5,1.119,2.5,2.5s-1.119,2.5-2.5,2.5
	h-4.924l3.542,3.542c0.977,0.977,0.977,2.559,0,3.535c-0.976,0.977-2.56,0.977-3.535,0l-3.495-3.495v4.962
	C43.538,178.373,42.419,179.492,41.038,179.492z"/>
</svg>