<?xml version="1.0" encoding="iso-8859-1"?>
<!-- Uploaded to: SVG Repo, www.svgrepo.com, Generator: SVG Repo Mixer Tools -->
<svg fill="#000000" height="800px" width="800px" version="1.1" id="Layer_1" xmlns="http://www.w3.org/2000/svg" xmlns:xlink="http://www.w3.org/1999/xlink" 
	 viewBox="0 0 512 512" xml:space="preserve">
<g>
	<g>
		<path d="M398.222,193.424c-0.108,0-0.208,0.03-0.317,0.032c7.233-9.543,11.694-21.294,11.694-34.165
			c0-31.366-25.522-56.889-56.889-56.889c-18.675,0-35.133,9.167-45.511,23.107c-8.783-11.796-21.944-19.987-37.128-22.259
			c-3.192-10.537-8.069-32.967,0.828-51.675c6.567-13.817,19.833-23.655,39.422-29.256c6.044-1.728,9.544-8.022,7.822-14.067
			c-1.733-6.044-8.078-9.539-14.067-7.811c-26.155,7.472-44.233,21.389-53.722,41.361c-10.878,22.865-7.419,47.826-3.55,62.825
			c-8.633,2.36-16.411,6.645-22.897,12.454c-7.989-21.77-28.736-37.434-53.241-37.434c-31.366,0-56.889,25.522-56.889,56.889
			c0,8.308,1.889,16.15,5.103,23.271c-1.708-0.154-3.355-0.515-5.103-0.515c-31.366,0-56.889,25.522-56.889,56.889
			s25.522,56.889,56.889,56.889c7.483,0,14.597-1.536,21.15-4.175c-12.675,8.088-21.15,22.191-21.15,38.308
			c0,17.461,9.992,32.478,24.458,40.108c-8.039,9.045-13.08,20.82-13.08,33.847c0,25.564,18.886,46.623,43.405,50.412
			c-5.808,8.303-9.272,18.355-9.272,29.232c0,28.233,22.966,51.2,51.2,51.2c28.233,0,51.2-22.966,51.2-51.2
			c0-2.168-0.378-4.232-0.639-6.328c2.097,0.263,4.161,0.639,6.328,0.639c28.233,0,51.2-22.966,51.2-51.2
			c0-8.113-2.069-15.685-5.442-22.507c6.825,3.372,14.397,5.44,22.508,5.44c28.233,0,51.2-22.967,51.2-51.2
			c0-13.319-5.233-25.357-13.597-34.472c7.572,3.736,15.975,6.028,24.975,6.028c31.366,0,56.889-25.522,56.889-56.889
			C455.11,218.947,429.588,193.424,398.222,193.424z M352.711,125.158c18.822,0,34.133,15.311,34.133,34.133
			s-15.311,34.133-34.133,34.133s-34.133-15.311-34.133-34.133C318.578,140.469,333.889,125.158,352.711,125.158z M352.711,284.095
			c1.331,1.787,2.72,3.525,4.247,5.143c-2.1-0.968-4.306-1.681-6.544-2.361C351.194,285.958,351.991,285.061,352.711,284.095z
			 M352.394,216.148c0.108,0.001,0.208,0.032,0.317,0.032s0.208-0.03,0.317-0.032c-0.1,0.133-0.216,0.25-0.317,0.383
			C352.611,216.398,352.494,216.281,352.394,216.148z M307.2,193.073c0.1,0.133,0.217,0.25,0.317,0.383
			c-0.108-0.001-0.208-0.032-0.317-0.032c-0.108,0-0.208,0.03-0.317,0.032C306.983,193.323,307.1,193.206,307.2,193.073z
			 M261.667,125.158c0.008,0,0.014,0,0.022,0c0.006,0,0.011,0,0.019,0c18.811,0,34.114,15.317,34.114,34.132
			c0,18.822-15.311,34.135-34.133,34.135c-18.822,0-34.133-15.312-34.133-34.135C227.556,140.476,242.856,125.158,261.667,125.158z
			 M216.178,324.268c0-15.683,12.756-28.444,28.444-28.444c15.689,0,28.444,12.761,28.444,28.444
			c0,15.683-12.756,28.444-28.444,28.444C228.934,352.712,216.178,339.951,216.178,324.268z M227.428,372.283
			c-0.225,0.28-0.47,0.544-0.686,0.831c-0.056-0.354-0.045-0.727-0.108-1.078C226.892,372.134,227.167,372.19,227.428,372.283z
			 M249.606,273.572c1.378-1.779,2.65-3.604,3.814-5.54c0.719,2.176,1.469,4.315,2.436,6.367
			C253.828,273.942,251.714,273.779,249.606,273.572z M256.586,215.664c1.708,0.154,3.355,0.515,5.103,0.515
			c0.108,0,0.208-0.03,0.317-0.032c-1.236,1.629-2.367,3.307-3.425,5.068C257.959,219.337,257.392,217.449,256.586,215.664z
			 M238.934,238.935c0,18.822-15.311,34.133-34.133,34.133c-18.822,0-34.133-15.311-34.133-34.133
			c0-18.822,15.311-34.133,34.133-34.133C223.623,204.802,238.934,220.113,238.934,238.935z M167.02,196.726
			c-0.472-1.285-0.897-2.576-1.456-3.817c1.708,0.154,3.355,0.515,5.103,0.515c0.139,0,0.264-0.04,0.403-0.04
			C169.662,194.43,168.323,195.559,167.02,196.726z M209.903,182.562c-1.708-0.154-3.355-0.516-5.103-0.516
			c-0.139,0-0.264,0.04-0.403,0.04c1.411-1.046,2.747-2.175,4.05-3.341C208.92,180.03,209.345,181.322,209.903,182.562z
			 M170.667,102.402c18.822,0,34.133,15.311,34.133,34.133s-15.311,34.133-34.133,34.133s-34.133-15.311-34.133-34.133
			C136.534,117.714,151.845,102.402,170.667,102.402z M153.076,262.318c-3.653,0.507-7.192,1.331-10.514,2.653
			c3.222-1.911,6.225-4.097,8.997-6.582C152.045,259.714,152.495,261.041,153.076,262.318z M113.779,250.313
			c-18.822,0-34.133-15.311-34.133-34.133c0-18.822,15.311-34.133,34.133-34.133s34.133,15.311,34.133,34.133
			C147.912,235.002,132.601,250.313,113.779,250.313z M136.534,307.201c0-12.55,10.211-22.755,22.755-22.755
			s22.755,10.206,22.755,22.755c0,12.55-10.211,22.755-22.755,22.755S136.534,319.751,136.534,307.201z M147.912,381.156
			c0-15.683,12.756-28.444,28.444-28.444s28.444,12.761,28.444,28.444s-12.756,28.444-28.444,28.444S147.912,396.84,147.912,381.156
			z M210.489,489.245c-15.689,0-28.444-12.761-28.444-28.444s12.756-28.444,28.444-28.444c15.689,0,28.444,12.761,28.444,28.444
			C238.934,476.484,226.178,489.245,210.489,489.245z M267.378,432.356c-15.689,0-28.444-12.761-28.444-28.444
			c0-15.683,12.756-28.444,28.444-28.444c15.689,0,28.444,12.761,28.444,28.444C295.822,419.595,283.067,432.356,267.378,432.356z
			 M284.572,355.897c0.972-1.223,2-2.383,2.858-3.693c0.708,2.049,1.506,4.026,2.456,5.949
			C288.158,357.3,286.4,356.554,284.572,355.897z M291.95,304.861c0.82,0.229,1.591,0.561,2.425,0.756
			c-0.514,0.701-1.064,1.364-1.539,2.093C292.511,306.771,292.325,305.775,291.95,304.861z M273.067,250.313
			c0-18.822,15.311-34.133,34.133-34.133c18.822,0,34.133,15.311,34.133,34.133c0,18.822-15.311,34.133-34.133,34.133
			C288.378,284.446,273.067,269.135,273.067,250.313z M335.644,364.09c-15.689,0-28.444-12.761-28.444-28.444
			s12.756-28.444,28.444-28.444c15.689,0,28.444,12.761,28.444,28.444C364.088,351.329,351.333,364.09,335.644,364.09z
			 M398.222,284.446c-18.822,0-34.133-15.311-34.133-34.133c0-18.822,15.311-34.133,34.133-34.133
			c18.822,0,34.133,15.311,34.133,34.133C432.355,269.135,417.044,284.446,398.222,284.446z"/>
	</g>
</g>
</svg>